HIERARCHY
ROOT Hips
{
  OFFSET 0.0 0.0 0.0
  CHANNELS 6 XPOSITION YPOSITION ZPOSITION ZROTATION YROTATION XROTATION 
  JOINT LeftUpLeg
  {
    OFFSET 8.9458038 -8.6670642 0.1016508
    CHANNELS 3 ZROTATION YROTATION XROTATION 
    JOINT LeftLeg
    {
      OFFSET -0.00030480000000000004 -44.2569346 4.0725598
      CHANNELS 3 ZROTATION YROTATION XROTATION 
      JOINT LeftFoot
      {
        OFFSET -0.25328880000000004 -41.911778 -4.1605708
        CHANNELS 3 ZROTATION YROTATION XROTATION 
        JOINT LeftToes
        {
          OFFSET -0.040005 -4.4151042 8.4991194
          CHANNELS 3 ZROTATION YROTATION XROTATION 
          End Site
          {
            OFFSET 0.08001 -0.047447199999999995 9.7797874
          }
        }
      }
    }
  }
  JOINT Spine
  {
    OFFSET 0.0 11.890502000000001 0.0
    CHANNELS 3 ZROTATION YROTATION XROTATION 
    JOINT Spine1
    {
      OFFSET -0.0 25.657505200000003 0.12705080000000002
      CHANNELS 3 ZROTATION YROTATION XROTATION 
      JOINT Head
      {
        OFFSET -0.0 8.734171 0.0111252
        CHANNELS 3 ZROTATION YROTATION XROTATION 
        End Site
        {
          OFFSET -0.28999179999999997 12.7742696 2.5136348
        }
      }
      JOINT LeftShoulder1
      {
        OFFSET 8.9899998 -0.3622548 -0.2200148
        CHANNELS 3 ZROTATION YROTATION XROTATION 
        JOINT LeftArm
        {
          OFFSET 10.2827582 -0.0033782 0.32209740000000003
          CHANNELS 3 ZROTATION YROTATION XROTATION 
          JOINT LeftForeArm
          {
            OFFSET 26.260552000000004 -0.026314399999999998 -1.4100810000000001
            CHANNELS 3 ZROTATION YROTATION XROTATION 
            JOINT LeftHand
            {
              OFFSET 22.0897958 0.1915922 1.017524
              CHANNELS 3 ZROTATION YROTATION XROTATION 
              End Site
              {
                OFFSET 13.4207758 -0.556387 1.503807
              }
            }
          }
        }
      }
      JOINT RightShoulder
      {
        OFFSET -8.9899998 -0.3622548 -0.219964
        CHANNELS 3 ZROTATION YROTATION XROTATION 
        JOINT RightArm
        {
          OFFSET -10.2827582 -0.0033782 0.3221482
          CHANNELS 3 ZROTATION YROTATION XROTATION 
          JOINT RightForeArm
          {
            OFFSET -26.3648698 -0.0263906 -1.4099794
            CHANNELS 3 ZROTATION YROTATION XROTATION 
            JOINT RightHand
            {
              OFFSET -22.0319092 0.1914652 1.0174732
              CHANNELS 3 ZROTATION YROTATION XROTATION 
              End Site
              {
                OFFSET -13.330174 -0.5566664 1.5037816
              }
            }
          }
        }
      }
    }
  }
  JOINT RightUpLeg
  {
    OFFSET -8.9458038 -8.6670642 0.1016508
    CHANNELS 3 ZROTATION YROTATION XROTATION 
    JOINT RightLeg
    {
      OFFSET 0.00015240000000000002 -44.256706 4.075049
      CHANNELS 3 ZROTATION YROTATION XROTATION 
      JOINT RightFoot
      {
        OFFSET 0.15628620000000001 -41.9119812 -4.1630854
        CHANNELS 3 ZROTATION YROTATION XROTATION 
        JOINT RightToes
        {
          OFFSET 0.0075692 -4.415155 8.4991702
          CHANNELS 3 ZROTATION YROTATION XROTATION 
          End Site
          {
            OFFSET 0.012192 -0.1375664 9.7800922
          }
        }
      }
    }
  }
}
MOTION
Frames: 25
Frame Time: 0.033333
148.071586 102.88651 5.035296 165.735 -88.2751 -168.614 -2.7815 1.4383 7.3398 1.5568 22.0834 0.0086 -1.8565 0.0792 -9.1111 0.0 0.0 0.0 3.2678 0.6703 1.6536 -3.1032 1.3125 3.2531 0.2024 -7.1412 2.067 -44.3386 -3.1089 3.3659 -28.6958 -2.5674 14.5548 -8.9199 -13.585 23.8172 5.3778 0.0211 -0.247 35.4256 0.1678 1.5196 41.8108 12.4511 6.2744 11.2068 5.0542 31.7798 -10.0246 -1.2647 -0.3642 0.9434 -2.5507 3.8769 -1.0548 -11.2178 3.5789 1.041 -0.0447 -9.0713 0.0 0.0 0.0 
148.071586 102.88651 5.028692 165.207 -88.2967 -168.096 -2.7944 1.4329 7.3751 1.5382 22.1044 -0.0602 -1.8402 0.0781 -9.1111 0.0 0.0 0.0 3.2237 0.664 1.664 -3.0916 1.3048 3.2562 0.1531 -7.0066 2.1113 -44.3525 -3.1089 3.3659 -28.6974 -2.5594 14.8575 -8.8313 -13.728 23.5165 5.3778 0.0211 -0.247 35.4075 0.1678 1.5196 41.8106 12.4295 6.2964 11.2273 5.0508 31.4834 -9.5218 -1.6326 -0.3192 0.9341 -2.5631 3.8682 -1.0626 -11.227 3.6338 1.0409 -0.0446 -9.1064 0.0 0.0 0.0 
148.071586 102.88651 5.015484 164.842 -88.3013 -167.721 -2.7985 1.4267 7.3669 1.5393 22.107 -0.0665 -1.8633 0.0796 -9.1111 0.0 0.0 0.0 3.1279 0.6601 1.6629 -3.0296 1.29 3.2818 0.0947 -6.8311 2.1946 -44.4446 -3.1089 3.3697 -28.6117 -2.6267 15.0347 -8.7945 -13.7943 23.3378 5.3778 0.0211 -0.247 35.3512 0.1678 1.5196 41.8095 12.4383 6.2809 11.2457 5.0214 31.0943 -9.0332 -2.2336 -0.2608 0.9352 -2.5581 3.853 -1.0718 -11.234 3.6532 1.044 -0.0448 -9.1225 0.0 0.0 0.0 
148.069808 102.88651 5.003546 165.017 -88.2614 -167.864 -2.7966 1.4186 7.3222 1.556 22.1205 -0.0253 -1.9109 0.0827 -9.1054 0.0 0.0 0.0 3.0331 0.6514 1.6903 -2.9713 1.2697 3.2463 0.0381 -6.6906 2.2819 -44.5366 -3.1089 3.3772 -28.4792 -2.7638 14.6365 -8.9483 -13.5643 23.727 5.3778 0.0211 -0.247 35.3264 0.1678 1.5196 41.7945 12.4735 6.2335 11.2532 4.9567 31.0096 -8.9909 -2.501 -0.2412 0.9473 -2.5325 3.8343 -1.0801 -11.2174 3.6155 1.0662 -0.0463 -9.1036 0.0 0.0 0.0 
148.067776 102.88651 4.997704 165.487 -88.1738 -168.296 -2.8074 1.4051 7.301 1.5522 22.2065 -0.0524 -1.9237 0.0835 -9.083 0.0 0.0 0.0 2.9894 0.6308 1.7645 -2.9943 1.2521 3.1116 -0.043 -6.5149 2.3648 -44.5414 -3.1089 3.3808 -28.3923 -2.8483 14.0301 -9.151 -13.241 24.353 5.3778 0.0211 -0.247 35.3752 0.173 1.5196 41.7543 12.505 6.236 11.2675 4.8879 31.1827 -9.1295 -2.3369 -0.2562 0.9559 -2.5052 3.7988 -1.0915 -11.1611 3.5857 1.0939 -0.0481 -9.082 0.0 0.0 0.0 
148.06396600000002 102.88651 4.994402 166.282 -88.0345 -169.053 -2.8257 1.3928 7.3077 1.5309 22.3638 -0.1357 -1.909 0.0826 -9.0552 0.0 0.0 0.0 2.9954 0.6181 1.8395 -3.0732 1.2537 2.9706 -0.1371 -6.2666 2.44 -44.5375 -3.1089 3.3829 -28.3121 -2.8247 13.7579 -9.2254 -13.1094 24.6972 5.3778 0.0211 -0.247 35.4071 0.1784 1.5196 41.7591 12.5428 6.301 11.2885 4.8528 31.313 -9.1378 -2.1477 -0.2699 0.9671 -2.4718 3.7492 -1.1105 -11.0592 3.5813 1.101 -0.0486 -9.0662 0.0 0.0 0.0 
148.055584 102.88651 4.988814 167.568 -87.859 -170.318 -2.8273 1.3946 7.3207 1.5279 22.5361 -0.1742 -1.9192 0.0832 -9.0464 0.0 0.0 0.0 3.0046 0.6337 1.8757 -3.0998 1.275 2.9214 -0.2197 -6.0438 2.4833 -44.6569 -3.1089 3.391 -28.1321 -2.7727 13.7636 -9.2144 -13.1211 24.7745 5.3778 0.0211 -0.247 35.3179 0.1827 1.5196 41.8638 12.6038 6.3483 11.2952 4.8565 31.304 -9.0511 -2.204 -0.2635 1.0001 -2.4179 3.7276 -1.1341 -10.9313 3.5569 1.0772 -0.0472 -9.041 0.0 0.0 0.0 
148.035518 102.88651 4.981448 169.063 -87.7011 -171.828 -2.8042 1.4156 7.3586 1.5472 22.6813 -0.1629 -1.9532 0.0854 -9.0632 0.0 0.0 0.0 2.9803 0.6606 1.8894 -3.0261 1.2882 2.9378 -0.312 -5.9555 2.4697 -44.8655 -3.1089 3.4027 -27.882 -2.7564 13.7305 -9.2435 -13.0811 24.8634 5.3778 0.0211 -0.247 35.1674 0.1857 1.5196 41.9948 12.6601 6.3395 11.2793 4.8804 31.2791 -9.0031 -2.3281 -0.2541 1.0504 -2.3613 3.7668 -1.1497 -10.8193 3.5042 1.0456 -0.0452 -9.0156 0.0 0.0 0.0 
148.002498 102.88651 4.975098 170.27 -87.6041 -173.075 -2.7715 1.4484 7.4402 1.5565 22.7933 -0.1797 -1.9673 0.0863 -9.0848 0.0 0.0 0.0 2.9349 0.6642 1.9136 -2.925 1.2713 2.9275 -0.4325 -5.979 2.4159 -45.006 -3.1089 3.4092 -27.7069 -2.7321 13.7415 -9.2976 -13.0201 24.911 5.3778 0.0211 -0.247 35.1057 0.1878 1.5196 42.0308 12.6708 6.3313 11.2681 4.9136 31.2745 -8.9849 -2.2947 -0.2576 1.0914 -2.3346 3.8407 -1.1483 -10.747 3.4707 1.0351 -0.0445 -9.0145 0.0 0.0 0.0 
147.965668 102.88651 4.973066 170.984 -87.5502 -173.828 -2.7472 1.4775 7.5297 1.5498 22.8733 -0.2243 -1.9672 0.0863 -9.0917 0.0 0.0 0.0 2.9152 0.6403 1.96 -2.9013 1.2407 2.8503 -0.5126 -6.0187 2.3856 -45.0132 -3.1089 3.4125 -27.6622 -2.653 14.0164 -9.2953 -13.0685 24.7211 5.3778 0.0211 -0.247 35.1663 0.1896 1.5196 41.9668 12.6346 6.3599 11.2754 4.9474 31.2196 -8.9785 -2.1848 -0.2634 1.1108 -2.3333 3.9039 -1.1385 -10.6974 3.4702 1.0411 -0.0449 -9.0302 0.0 0.0 0.0 
147.93239400000002 102.88651 4.972812 171.356 -87.4982 -174.229 -2.7391 1.4911 7.5884 1.5575 22.9243 -0.228 -1.9925 0.0879 -9.0926 0.0 0.0 0.0 2.9486 0.6109 2.0254 -2.9759 1.2238 2.7334 -0.4588 -6.0386 2.434 -44.9519 -3.1089 3.4141 -27.6782 -2.5497 14.3754 -9.2542 -13.1759 24.4236 5.3778 0.0211 -0.247 35.2556 0.1911 1.5196 41.8948 12.5772 6.3851 11.2849 4.9698 31.1227 -9.008 -2.1884 -0.2635 1.119 -2.3292 3.9538 -1.1367 -10.6466 3.4677 1.0488 -0.0453 -9.0404 0.0 0.0 0.0 
147.89759600000002 102.882954 4.973574 171.597 -87.4437 -174.499 -2.7457 1.4915 7.6289 1.5868 22.9662 -0.1906 -2.0274 0.0902 -9.1102 0.0 0.0 0.0 3.0011 0.5892 2.0805 -3.069 1.2185 2.6287 -0.2936 -6.0641 2.5387 -44.8944 -3.1089 3.4153 -27.6987 -2.4665 14.5101 -9.2287 -13.2277 24.2784 5.3778 0.0211 -0.247 35.3106 0.1924 1.5196 41.8558 12.5182 6.3822 11.2864 4.9763 31.0338 -9.0229 -2.3059 -0.2557 1.1236 -2.3271 4.0004 -1.1459 -10.5961 3.4689 1.0453 -0.0451 -9.0595 0.0 0.0 0.0 
147.857718 102.87457200000001 4.975606 171.743 -87.3988 -174.665 -2.7591 1.4928 7.6717 1.6046 23.0198 -0.1772 -2.021 0.0898 -9.1479 0.0 0.0 0.0 3.0101 0.5784 2.0676 -3.0867 1.2093 2.5895 -0.141 -6.1038 2.6076 -44.8678 -3.1089 3.4162 -27.7257 -2.4225 14.4413 -9.212 -13.2344 24.2998 5.3778 0.0211 -0.247 35.3427 0.1932 1.5196 41.8234 12.4728 6.3834 11.2942 4.9716 30.9288 -8.9685 -2.4133 -0.2468 1.1192 -2.3336 4.0176 -1.157 -10.5475 3.5248 1.0536 -0.0454 -9.1143 0.0 0.0 0.0 
147.818094 102.86517400000001 4.978146 171.772 -87.3543 -174.693 -2.77 1.503 7.707 1.591 23.0791 -0.2033 -1.9866 0.0875 -9.1856 0.0 0.0 0.0 2.9664 0.5834 1.962 -3.0243 1.2007 2.6408 -0.0693 -6.1286 2.5834 -44.8787 -3.1089 3.4168 -27.7508 -2.4551 14.2994 -9.2131 -13.2079 24.4165 5.3778 0.0211 -0.247 35.3555 0.1934 1.5196 41.7949 12.454 6.389 11.309 4.957 30.8242 -8.9007 -2.4721 -0.241 1.1058 -2.3511 3.9914 -1.1644 -10.4874 3.6244 1.074 -0.0466 -9.1828 0.0 0.0 0.0 
147.784058 102.862888 4.981194 171.839 -87.3069 -174.754 -2.7706 1.519 7.7342 1.5694 23.1177 -0.225 -1.9901 0.0878 -9.2059 0.0 0.0 0.0 2.9362 0.5977 1.8241 -2.9688 1.2048 2.7421 -0.0286 -6.1038 2.5171 -44.9007 -3.1089 3.417 -27.7579 -2.5853 14.0364 -9.2829 -13.0833 24.6796 5.3778 0.0211 -0.247 35.3457 0.1929 1.5196 41.7822 12.4551 6.3525 11.306 4.9357 30.8533 -8.8417 -2.5222 -0.2361 1.0985 -2.3588 3.9778 -1.1691 -10.4251 3.6781 1.0825 -0.047 -9.2161 0.0 0.0 0.0 
147.752054 102.86238 4.986274 172.132 -87.2811 -175.064 -2.7574 1.5371 7.7754 1.5642 23.1188 -0.2192 -2.0407 0.091 -9.2134 0.0 0.0 0.0 2.9746 0.6007 1.7329 -2.9883 1.2098 2.8189 0.046 -6.0136 2.4833 -44.8906 -3.1089 3.4171 -27.7655 -2.7323 13.7058 -9.3785 -12.9158 25.0049 5.3778 0.0211 -0.247 35.3606 0.1902 1.5196 41.7422 12.4594 6.2832 11.2816 4.9179 31.0469 -8.7033 -2.5481 -0.231 1.1085 -2.3528 4.0326 -1.1688 -10.398 3.6423 1.0718 -0.0463 -9.2103 0.0 0.0 0.0 
147.719288 102.862888 4.994148 172.56 -87.2877 -175.528 -2.7359 1.5562 7.8306 1.5652 23.0883 -0.2031 -2.0763 0.0933 -9.2258 0.0 0.0 0.0 3.0507 0.5861 1.6929 -3.0474 1.2053 2.8418 0.1443 -5.8676 2.4662 -44.863 -3.1089 3.4169 -27.7831 -2.7829 13.5957 -9.3757 -12.8982 25.0886 5.3778 0.0211 -0.247 35.4347 0.182 1.5196 41.6437 12.4641 6.2523 11.271 4.9046 31.1967 -8.5119 -2.5088 -0.2289 1.1249 -2.3473 4.1253 -1.1609 -10.4085 3.5735 1.0688 -0.0462 -9.2034 0.0 0.0 0.0 
147.688554 102.86365 5.001514 172.836 -87.3022 -175.827 -2.721 1.5703 7.8768 1.5689 23.0466 -0.1938 -2.0667 0.0927 -9.2516 0.0 0.0 0.0 3.0946 0.5703 1.6559 -3.065 1.1909 2.8484 0.2101 -5.7009 2.4044 -44.8827 -3.1089 3.4166 -27.7721 -2.7481 13.7954 -9.2673 -13.0582 24.8433 5.3778 0.0211 -0.247 35.5044 0.1699 1.5196 41.5564 12.4667 6.2821 11.2913 4.8952 31.1166 -8.4558 -2.4713 -0.23 1.1288 -2.3574 4.1934 -1.1455 -10.4127 3.5318 1.0853 -0.0472 -9.213 0.0 0.0 0.0 
147.664424 102.864412 5.007102000000001 172.888 -87.3075 -175.895 -2.7171 1.5745 7.9161 1.5724 23.0183 -0.198 -2.0528 0.0918 -9.279 0.0 0.0 0.0 3.0883 0.5626 1.609 -3.0215 1.1734 2.8807 0.2115 -5.5606 2.2992 -44.9494 -3.1089 3.4161 -27.7194 -2.7358 14.0102 -9.1849 -13.192 24.5772 5.3778 0.0211 -0.247 35.4956 0.1642 1.5196 41.5564 12.4662 6.326 11.3067 4.9207 30.9074 -8.5448 -2.5437 -0.2274 1.1192 -2.3765 4.2372 -1.1298 -10.3949 3.514 1.1047 -0.0484 -9.2253 0.0 0.0 0.0 
147.646898 102.86517400000001 5.011674 172.928 -87.312 -175.965 -2.7178 1.575 7.9664 1.5749 23.023 -0.2174 -2.0653 0.0926 -9.2914 0.0 0.0 0.0 3.0697 0.5554 1.5807 -2.9713 1.1562 2.9337 0.1587 -5.4804 2.1837 -44.9804 -3.1089 3.4156 -27.6833 -2.7795 14.031 -9.1885 -13.1932 24.5333 5.3778 0.0211 -0.247 35.4529 0.1623 1.5196 41.5953 12.4655 6.3524 11.2826 5.0102 30.8095 -8.5265 -2.6599 -0.2194 1.1135 -2.3896 4.2852 -1.1252 -10.3882 3.508 1.111 -0.0488 -9.2358 0.0 0.0 0.0 
147.633944 102.86619 5.015992000000001 173.054 -87.3175 -176.126 -2.7211 1.5794 8.0156 1.5837 23.05 -0.2352 -2.0781 0.0934 -9.293 0.0 0.0 0.0 3.0741 0.5463 1.5802 -2.9671 1.1472 2.9743 0.078 -5.4579 2.0262 -44.9347 -3.1089 3.4141 -27.7084 -2.8134 13.9872 -9.2001 -13.1701 24.5984 5.3778 0.0211 -0.247 35.4679 0.1622 1.5196 41.5883 12.4672 6.3605 11.241 5.1132 30.8971 -8.303 -2.6255 -0.2164 1.1167 -2.391 4.3292 -1.1333 -10.4028 3.5162 1.1059 -0.0484 -9.2493 0.0 0.0 0.0 
147.621498 102.86746000000001 5.023104 173.161 -87.3178 -176.251 -2.7249 1.5854 8.0375 1.5933 23.0559 -0.2279 -2.0696 0.0929 -9.3017 0.0 0.0 0.0 3.1067 0.5407 1.5768 -3.0082 1.1487 2.9947 -0.0088 -5.4658 1.7796 -44.8707 -3.1089 3.4124 -27.7579 -2.8051 13.9923 -9.1778 -13.1924 24.625 5.3778 0.0211 -0.247 35.5268 0.1629 1.5196 41.5632 12.4773 6.3482 11.2271 5.1401 31.0344 -8.1295 -2.4294 -0.2246 1.1191 -2.3933 4.3586 -1.134 -10.4052 3.508 1.0941 -0.0477 -9.2529 0.0 0.0 0.0 
147.606258 102.86873 5.036058 173.258 -87.3221 -176.342 -2.7272 1.5905 8.0375 1.5964 23.0231 -0.2069 -2.0598 0.0922 -9.3176 0.0 0.0 0.0 3.1536 0.5358 1.5439 -3.0535 1.1461 3.0158 -0.0814 -5.4885 1.5034 -44.8526 -3.1089 3.4108 -27.7791 -2.7829 13.9708 -9.1663 -13.2027 24.6373 5.3778 0.0211 -0.247 35.5493 0.1636 1.5196 41.5889 12.4901 6.3469 11.2471 5.1039 31.0395 -8.2252 -2.3173 -0.234 1.1096 -2.4078 4.3879 -1.1131 -10.3885 3.4573 1.0812 -0.0469 -9.2381 0.0 0.0 0.0 
147.591018 102.86974599999999 5.052314 173.379 -87.3373 -176.452 -2.7277 1.5925 8.0355 1.5849 22.9978 -0.2106 -2.0594 0.0922 -9.3251 0.0 0.0 0.0 3.1888 0.53 1.4949 -3.065 1.1439 3.0391 -0.1199 -5.5361 1.3133 -44.8762 -3.1089 3.4091 -27.7758 -2.739 13.9446 -9.1591 -13.2119 24.5985 5.3778 0.0211 -0.247 35.5349 0.1635 1.5196 41.6309 12.4821 6.4184 11.2714 5.1141 30.8595 -8.4639 -2.4276 -0.2339 1.0987 -2.4249 4.3998 -1.094 -10.383 3.4295 1.0835 -0.047 -9.2347 0.0 0.0 0.0 
147.58111200000002 102.87025400000002 5.0667919999999995 173.32 -87.348 -176.376 -2.7366 1.5886 8.0293 1.5648 23.018 -0.2411 -2.0508 0.0917 -9.3272 0.0 0.0 0.0 3.1901 0.5349 1.4614 -3.0392 1.1471 3.0386 -0.126 -5.6106 1.2202 -44.9063 -3.1089 3.4075 -27.7782 -2.6446 14.0346 -9.106 -13.2916 24.4195 5.3778 0.0211 -0.247 35.5419 0.1617 1.5196 41.6211 12.4449 6.5333 11.2781 5.1958 30.6403 -8.6254 -2.5837 -0.231 1.0863 -2.4336 4.3569 -1.1044 -10.3891 3.4952 1.1081 -0.0485 -9.2674 0.0 0.0 0.0 
